<svg xmlns="http://www.w3.org/2000/svg" xmlns:xlink="http://www.w3.org/1999/xlink" width="500" zoomAndPan="magnify" viewBox="0 0 375 374.999991" height="500" preserveAspectRatio="xMidYMid meet" version="1.0"><defs><g/><clipPath id="6d91a87981"><path d="M 26.585938 139.949219 L 125 139.949219 L 125 233.699219 L 26.585938 233.699219 Z M 26.585938 139.949219 " clip-rule="nonzero"/></clipPath><clipPath id="30d5860b6c"><path d="M 121 184 L 146.585938 184 L 146.585938 222 L 121 222 Z M 121 184 " clip-rule="nonzero"/></clipPath></defs><g fill="#000000" fill-opacity="1"><g transform="translate(159.563051, 174.884885)"><g><path d="M 18.796875 -5.59375 L 29.828125 -28.953125 L 34.296875 -28.953125 L 34.296875 0 L 30.765625 0 L 30.765625 -23.203125 L 19.78125 0 L 17.8125 0 L 6.859375 -23.46875 L 6.859375 0 L 3.328125 0 L 3.328125 -28.953125 L 7.96875 -28.953125 Z M 18.796875 -5.59375 "/></g></g></g><g fill="#000000" fill-opacity="1"><g transform="translate(197.18566, 174.884885)"><g><path d="M 15.546875 0.390625 C 12.765625 0.390625 10.359375 -0.164062 8.328125 -1.28125 C 6.296875 -2.40625 4.722656 -4.03125 3.609375 -6.15625 C 2.492188 -8.289062 1.9375 -10.863281 1.9375 -13.875 L 1.9375 -15.0625 C 1.9375 -18.082031 2.492188 -20.65625 3.609375 -22.78125 C 4.722656 -24.90625 6.296875 -26.53125 8.328125 -27.65625 C 10.359375 -28.78125 12.765625 -29.34375 15.546875 -29.34375 C 18.316406 -29.34375 20.71875 -28.78125 22.75 -27.65625 C 24.789062 -26.53125 26.363281 -24.90625 27.46875 -22.78125 C 28.582031 -20.65625 29.140625 -18.082031 29.140625 -15.0625 L 29.140625 -13.875 C 29.140625 -10.863281 28.582031 -8.289062 27.46875 -6.15625 C 26.363281 -4.03125 24.789062 -2.40625 22.75 -1.28125 C 20.71875 -0.164062 18.316406 0.390625 15.546875 0.390625 Z M 15.546875 -2.703125 C 18.660156 -2.703125 21.109375 -3.644531 22.890625 -5.53125 C 24.679688 -7.425781 25.578125 -10.207031 25.578125 -13.875 L 25.578125 -15.0625 C 25.578125 -18.769531 24.691406 -21.5625 22.921875 -23.4375 C 21.148438 -25.3125 18.691406 -26.25 15.546875 -26.25 C 12.421875 -26.25 9.96875 -25.3125 8.1875 -23.4375 C 6.40625 -21.5625 5.515625 -18.769531 5.515625 -15.0625 L 5.515625 -13.875 C 5.515625 -10.207031 6.40625 -7.425781 8.1875 -5.53125 C 9.96875 -3.644531 12.421875 -2.703125 15.546875 -2.703125 Z M 15.546875 -2.703125 "/></g></g></g><g fill="#000000" fill-opacity="1"><g transform="translate(228.26693, 174.884885)"><g><path d="M 13.640625 -5.15625 L 22.953125 -28.953125 L 26.6875 -28.953125 L 15.3125 0 L 12.015625 0 L 0.515625 -28.953125 L 4.328125 -28.953125 Z M 13.640625 -5.15625 "/></g></g></g><g fill="#000000" fill-opacity="1"><g transform="translate(255.463046, 174.884885)"><g><path d="M 6.90625 -28.953125 L 6.90625 0 L 3.375 0 L 3.375 -28.953125 Z M 6.90625 -28.953125 "/></g></g></g><g fill="#000000" fill-opacity="1"><g transform="translate(265.730971, 174.884885)"><g><path d="M 24.46875 0 L 3.328125 0 L 3.328125 -28.953125 L 23.796875 -28.953125 L 23.796875 -25.859375 L 6.859375 -25.859375 L 6.859375 -16.21875 L 22.359375 -16.21875 L 22.359375 -13.125 L 6.859375 -13.125 L 6.859375 -3.09375 L 24.46875 -3.09375 Z M 24.46875 0 "/></g></g></g><g fill="#000000" fill-opacity="1"><g transform="translate(149.473208, 230.384882)"><g><path d="M 23.515625 -28.953125 L 23.515625 -25.859375 L 6.859375 -25.859375 L 6.859375 -16.015625 L 22.09375 -16.015625 L 22.09375 -12.921875 L 6.859375 -12.921875 L 6.859375 0 L 3.328125 0 L 3.328125 -28.953125 Z M 23.515625 -28.953125 "/></g></g></g><g fill="#000000" fill-opacity="1"><g transform="translate(174.369942, 230.384882)"><g><path d="M 6.90625 -28.953125 L 6.90625 0 L 3.375 0 L 3.375 -28.953125 Z M 6.90625 -28.953125 "/></g></g></g><g fill="#000000" fill-opacity="1"><g transform="translate(184.637867, 230.384882)"><g><path d="M 24.75 -5.796875 L 24.75 -28.953125 L 28.15625 -28.953125 L 28.15625 0 L 24.984375 0 L 6.734375 -24.078125 L 6.734375 0 L 3.328125 0 L 3.328125 -28.953125 L 7.296875 -28.953125 Z M 24.75 -5.796875 "/></g></g></g><g fill="#000000" fill-opacity="1"><g transform="translate(216.115583, 230.384882)"><g><path d="M 3.328125 -28.953125 L 14.90625 -28.953125 C 17.707031 -28.953125 20.144531 -28.378906 22.21875 -27.234375 C 24.300781 -26.097656 25.914062 -24.5 27.0625 -22.4375 C 28.21875 -20.382812 28.796875 -17.96875 28.796875 -15.1875 L 28.796875 -13.765625 C 28.796875 -10.984375 28.21875 -8.5625 27.0625 -6.5 C 25.914062 -4.4375 24.300781 -2.835938 22.21875 -1.703125 C 20.144531 -0.566406 17.707031 0 14.90625 0 L 3.328125 0 Z M 25.21875 -13.765625 L 25.21875 -15.1875 C 25.21875 -18.519531 24.257812 -21.128906 22.34375 -23.015625 C 20.425781 -24.910156 17.722656 -25.859375 14.234375 -25.859375 L 6.859375 -25.859375 L 6.859375 -3.09375 L 14.234375 -3.09375 C 17.722656 -3.09375 20.425781 -4.035156 22.34375 -5.921875 C 24.257812 -7.816406 25.21875 -10.429688 25.21875 -13.765625 Z M 25.21875 -13.765625 "/></g></g></g><g fill="#000000" fill-opacity="1"><g transform="translate(246.68148, 230.384882)"><g><path d="M 24.46875 0 L 3.328125 0 L 3.328125 -28.953125 L 23.796875 -28.953125 L 23.796875 -25.859375 L 6.859375 -25.859375 L 6.859375 -16.21875 L 22.359375 -16.21875 L 22.359375 -13.125 L 6.859375 -13.125 L 6.859375 -3.09375 L 24.46875 -3.09375 Z M 24.46875 0 "/></g></g></g><g fill="#000000" fill-opacity="1"><g transform="translate(272.688257, 230.384882)"><g><path d="M 25.8125 -8.125 L 25.8125 -3.609375 C 25.8125 -2.816406 25.890625 -2.140625 26.046875 -1.578125 C 26.210938 -1.023438 26.519531 -0.5 26.96875 0 L 23.203125 0 C 22.535156 -0.875 22.203125 -2.078125 22.203125 -3.609375 L 22.203125 -8.125 C 22.203125 -9.84375 21.867188 -11.023438 21.203125 -11.671875 C 20.546875 -12.328125 19.296875 -12.65625 17.453125 -12.65625 L 6.859375 -12.65625 L 6.859375 0 L 3.328125 0 L 3.328125 -28.953125 L 17.125 -28.953125 C 20.25 -28.953125 22.617188 -28.21875 24.234375 -26.75 C 25.847656 -25.28125 26.65625 -23.382812 26.65625 -21.0625 C 26.65625 -19.6875 26.351562 -18.53125 25.75 -17.59375 C 25.15625 -16.65625 24.414062 -15.921875 23.53125 -15.390625 C 22.644531 -14.859375 21.769531 -14.488281 20.90625 -14.28125 L 20.90625 -14.203125 C 22.457031 -14.015625 23.660156 -13.421875 24.515625 -12.421875 C 25.378906 -11.429688 25.8125 -10 25.8125 -8.125 Z M 6.859375 -15.703125 L 17.125 -15.703125 C 19.164062 -15.703125 20.664062 -16.144531 21.625 -17.03125 C 22.59375 -17.914062 23.078125 -19.164062 23.078125 -20.78125 C 23.078125 -22.414062 22.597656 -23.671875 21.640625 -24.546875 C 20.691406 -25.421875 19.1875 -25.859375 17.125 -25.859375 L 6.859375 -25.859375 Z M 6.859375 -15.703125 "/></g></g></g><g clip-path="url(#6d91a87981)"><path fill="#364e89" d="M 97.992188 139.949219 C 84.65625 139.949219 73.589844 149.65625 71.46875 162.386719 L 68.171875 163.011719 C 64.292969 156.460938 57.160156 152.070312 48.992188 152.070312 C 36.6875 152.070312 26.71875 162.039062 26.71875 174.339844 C 26.71875 184.804688 33.929688 193.574219 43.652344 195.96875 L 43.652344 198.457031 L 39.140625 198.457031 L 39.121094 198.253906 L 33.78125 196.269531 L 30.039062 196.269531 L 35.945312 208.570312 L 38.128906 207.984375 L 39.34375 206 L 43.652344 206 L 43.652344 233.816406 L 121.070312 233.816406 L 121.070312 187.570312 L 115.121094 187.570312 C 121.089844 182.636719 124.894531 175.183594 124.894531 166.835938 C 124.894531 151.980469 112.84375 139.949219 97.988281 139.949219 Z M 74.625 180.148438 C 76.242188 182.984375 78.355469 185.503906 80.855469 187.574219 L 66.917969 187.574219 C 68.375 185.597656 69.507812 183.375 70.253906 180.976562 Z M 113.304688 224.472656 C 114.644531 224.472656 115.730469 225.558594 115.730469 226.898438 C 115.730469 228.242188 114.644531 229.328125 113.304688 229.328125 C 111.964844 229.328125 110.875 228.242188 110.875 226.898438 C 110.875 225.558594 111.964844 224.472656 113.304688 224.472656 Z M 113.304688 224.472656 " fill-opacity="1" fill-rule="nonzero"/></g><path fill="#ffd6e2" d="M 97.601562 152.621094 C 90.09375 152.621094 84.007812 158.707031 84.007812 166.214844 C 84.007812 173.722656 90.09375 179.808594 97.601562 179.808594 C 105.109375 179.808594 111.195312 173.722656 111.195312 166.214844 C 111.195312 158.707031 105.109375 152.621094 97.601562 152.621094 Z M 96.304688 156.632812 C 97.519531 156.632812 98.511719 157.609375 98.511719 158.828125 C 98.511719 160.042969 97.519531 161.035156 96.304688 161.035156 C 95.085938 161.035156 94.097656 160.042969 94.097656 158.828125 C 94.097656 157.609375 95.085938 156.632812 96.304688 156.632812 Z M 103.113281 160.761719 C 104.328125 160.761719 105.320312 161.753906 105.320312 162.96875 C 105.320312 164.183594 104.328125 165.175781 103.113281 165.175781 C 101.894531 165.175781 100.90625 164.183594 100.90625 162.96875 C 100.90625 161.753906 101.894531 160.761719 103.113281 160.761719 Z M 91.101562 162.496094 C 92.316406 162.496094 93.292969 163.488281 93.292969 164.703125 C 93.292969 165.921875 92.316406 166.910156 91.101562 166.910156 C 89.882812 166.910156 88.894531 165.921875 88.894531 164.703125 C 88.894531 163.488281 89.882812 162.496094 91.101562 162.496094 Z M 102.3125 168.515625 C 103.527344 168.515625 104.515625 169.492188 104.515625 170.710938 C 104.515625 171.925781 103.527344 172.917969 102.3125 172.917969 C 101.09375 172.917969 100.105469 171.925781 100.105469 170.710938 C 100.105469 169.492188 101.09375 168.515625 102.3125 168.515625 Z M 94.167969 169.847656 C 95.386719 169.847656 96.375 170.828125 96.375 172.042969 C 96.375 173.261719 95.386719 174.25 94.167969 174.25 C 92.953125 174.25 91.960938 173.261719 91.960938 172.042969 C 91.960938 170.828125 92.953125 169.847656 94.167969 169.847656 Z M 94.167969 169.847656 " fill-opacity="1" fill-rule="nonzero"/><path fill="#ffd6e2" d="M 49.050781 162.328125 C 42.972656 162.328125 38.042969 167.257812 38.042969 173.335938 C 38.042969 179.414062 42.972656 184.339844 49.050781 184.339844 C 55.128906 184.339844 60.054688 179.414062 60.054688 173.335938 C 60.054688 167.257812 55.128906 162.328125 49.050781 162.328125 Z M 48 165.578125 C 48.984375 165.578125 49.785156 166.371094 49.785156 167.355469 C 49.785156 168.339844 48.984375 169.140625 48 169.140625 C 47.015625 169.140625 46.210938 168.339844 46.210938 167.355469 C 46.210938 166.371094 47.015625 165.578125 48 165.578125 Z M 53.511719 168.921875 C 54.496094 168.921875 55.296875 169.722656 55.296875 170.707031 C 55.296875 171.691406 54.496094 172.496094 53.511719 172.496094 C 52.527344 172.496094 51.726562 171.691406 51.726562 170.707031 C 51.726562 169.722656 52.527344 168.921875 53.511719 168.921875 Z M 43.785156 170.324219 C 44.769531 170.324219 45.5625 171.128906 45.5625 172.113281 C 45.5625 173.097656 44.769531 173.898438 43.785156 173.898438 C 42.800781 173.898438 42 173.097656 42 172.113281 C 42 171.128906 42.800781 170.324219 43.785156 170.324219 Z M 52.863281 175.199219 C 53.847656 175.199219 54.648438 175.988281 54.648438 176.976562 C 54.648438 177.960938 53.847656 178.761719 52.863281 178.761719 C 51.875 178.761719 51.074219 177.960938 51.074219 176.976562 C 51.074219 175.988281 51.875 175.199219 52.863281 175.199219 Z M 46.269531 176.277344 C 47.253906 176.277344 48.054688 177.070312 48.054688 178.054688 C 48.054688 179.039062 47.253906 179.839844 46.269531 179.839844 C 45.285156 179.839844 44.484375 179.039062 44.484375 178.054688 C 44.484375 177.070312 45.285156 176.277344 46.269531 176.277344 Z M 46.269531 176.277344 " fill-opacity="1" fill-rule="nonzero"/><g clip-path="url(#30d5860b6c)"><path fill="#364e89" d="M 146.210938 184.722656 L 132.558594 192.996094 L 121.875 192.996094 L 121.875 213.609375 L 132.558594 213.609375 L 146.210938 221.882812 Z M 146.210938 184.722656 " fill-opacity="1" fill-rule="nonzero"/></g></svg>