<svg xmlns="http://www.w3.org/2000/svg" xmlns:xlink="http://www.w3.org/1999/xlink" width="500" zoomAndPan="magnify" viewBox="0 0 375 374.999991" height="500" preserveAspectRatio="xMidYMid meet" version="1.0"><defs><g/><clipPath id="df0932e405"><path d="M 49.292969 139.949219 L 148 139.949219 L 148 233.699219 L 49.292969 233.699219 Z M 49.292969 139.949219 " clip-rule="nonzero"/></clipPath></defs><g fill="#000000" fill-opacity="1"><g transform="translate(187.188683, 174.884885)"><g><path d="M 18.796875 -5.59375 L 29.828125 -28.953125 L 34.296875 -28.953125 L 34.296875 0 L 30.765625 0 L 30.765625 -23.203125 L 19.78125 0 L 17.8125 0 L 6.859375 -23.46875 L 6.859375 0 L 3.328125 0 L 3.328125 -28.953125 L 7.96875 -28.953125 Z M 18.796875 -5.59375 "/></g></g></g><g fill="#000000" fill-opacity="1"><g transform="translate(224.811293, 174.884885)"><g><path d="M 15.546875 0.390625 C 12.765625 0.390625 10.359375 -0.164062 8.328125 -1.28125 C 6.296875 -2.40625 4.722656 -4.03125 3.609375 -6.15625 C 2.492188 -8.289062 1.9375 -10.863281 1.9375 -13.875 L 1.9375 -15.0625 C 1.9375 -18.082031 2.492188 -20.65625 3.609375 -22.78125 C 4.722656 -24.90625 6.296875 -26.53125 8.328125 -27.65625 C 10.359375 -28.78125 12.765625 -29.34375 15.546875 -29.34375 C 18.316406 -29.34375 20.71875 -28.78125 22.75 -27.65625 C 24.789062 -26.53125 26.363281 -24.90625 27.46875 -22.78125 C 28.582031 -20.65625 29.140625 -18.082031 29.140625 -15.0625 L 29.140625 -13.875 C 29.140625 -10.863281 28.582031 -8.289062 27.46875 -6.15625 C 26.363281 -4.03125 24.789062 -2.40625 22.75 -1.28125 C 20.71875 -0.164062 18.316406 0.390625 15.546875 0.390625 Z M 15.546875 -2.703125 C 18.660156 -2.703125 21.109375 -3.644531 22.890625 -5.53125 C 24.679688 -7.425781 25.578125 -10.207031 25.578125 -13.875 L 25.578125 -15.0625 C 25.578125 -18.769531 24.691406 -21.5625 22.921875 -23.4375 C 21.148438 -25.3125 18.691406 -26.25 15.546875 -26.25 C 12.421875 -26.25 9.96875 -25.3125 8.1875 -23.4375 C 6.40625 -21.5625 5.515625 -18.769531 5.515625 -15.0625 L 5.515625 -13.875 C 5.515625 -10.207031 6.40625 -7.425781 8.1875 -5.53125 C 9.96875 -3.644531 12.421875 -2.703125 15.546875 -2.703125 Z M 15.546875 -2.703125 "/></g></g></g><g fill="#000000" fill-opacity="1"><g transform="translate(255.892563, 174.884885)"><g><path d="M 13.640625 -5.15625 L 22.953125 -28.953125 L 26.6875 -28.953125 L 15.3125 0 L 12.015625 0 L 0.515625 -28.953125 L 4.328125 -28.953125 Z M 13.640625 -5.15625 "/></g></g></g><g fill="#000000" fill-opacity="1"><g transform="translate(283.088679, 174.884885)"><g><path d="M 6.90625 -28.953125 L 6.90625 0 L 3.375 0 L 3.375 -28.953125 Z M 6.90625 -28.953125 "/></g></g></g><g fill="#000000" fill-opacity="1"><g transform="translate(293.356603, 174.884885)"><g><path d="M 24.46875 0 L 3.328125 0 L 3.328125 -28.953125 L 23.796875 -28.953125 L 23.796875 -25.859375 L 6.859375 -25.859375 L 6.859375 -16.21875 L 22.359375 -16.21875 L 22.359375 -13.125 L 6.859375 -13.125 L 6.859375 -3.09375 L 24.46875 -3.09375 Z M 24.46875 0 "/></g></g></g><g fill="#000000" fill-opacity="1"><g transform="translate(177.09884, 230.384882)"><g><path d="M 23.515625 -28.953125 L 23.515625 -25.859375 L 6.859375 -25.859375 L 6.859375 -16.015625 L 22.09375 -16.015625 L 22.09375 -12.921875 L 6.859375 -12.921875 L 6.859375 0 L 3.328125 0 L 3.328125 -28.953125 Z M 23.515625 -28.953125 "/></g></g></g><g fill="#000000" fill-opacity="1"><g transform="translate(201.995575, 230.384882)"><g><path d="M 6.90625 -28.953125 L 6.90625 0 L 3.375 0 L 3.375 -28.953125 Z M 6.90625 -28.953125 "/></g></g></g><g fill="#000000" fill-opacity="1"><g transform="translate(212.263499, 230.384882)"><g><path d="M 24.75 -5.796875 L 24.75 -28.953125 L 28.15625 -28.953125 L 28.15625 0 L 24.984375 0 L 6.734375 -24.078125 L 6.734375 0 L 3.328125 0 L 3.328125 -28.953125 L 7.296875 -28.953125 Z M 24.75 -5.796875 "/></g></g></g><g fill="#000000" fill-opacity="1"><g transform="translate(243.741215, 230.384882)"><g><path d="M 3.328125 -28.953125 L 14.90625 -28.953125 C 17.707031 -28.953125 20.144531 -28.378906 22.21875 -27.234375 C 24.300781 -26.097656 25.914062 -24.5 27.0625 -22.4375 C 28.21875 -20.382812 28.796875 -17.96875 28.796875 -15.1875 L 28.796875 -13.765625 C 28.796875 -10.984375 28.21875 -8.5625 27.0625 -6.5 C 25.914062 -4.4375 24.300781 -2.835938 22.21875 -1.703125 C 20.144531 -0.566406 17.707031 0 14.90625 0 L 3.328125 0 Z M 25.21875 -13.765625 L 25.21875 -15.1875 C 25.21875 -18.519531 24.257812 -21.128906 22.34375 -23.015625 C 20.425781 -24.910156 17.722656 -25.859375 14.234375 -25.859375 L 6.859375 -25.859375 L 6.859375 -3.09375 L 14.234375 -3.09375 C 17.722656 -3.09375 20.425781 -4.035156 22.34375 -5.921875 C 24.257812 -7.816406 25.21875 -10.429688 25.21875 -13.765625 Z M 25.21875 -13.765625 "/></g></g></g><g fill="#000000" fill-opacity="1"><g transform="translate(274.307112, 230.384882)"><g><path d="M 24.46875 0 L 3.328125 0 L 3.328125 -28.953125 L 23.796875 -28.953125 L 23.796875 -25.859375 L 6.859375 -25.859375 L 6.859375 -16.21875 L 22.359375 -16.21875 L 22.359375 -13.125 L 6.859375 -13.125 L 6.859375 -3.09375 L 24.46875 -3.09375 Z M 24.46875 0 "/></g></g></g><g fill="#000000" fill-opacity="1"><g transform="translate(300.313889, 230.384882)"><g><path d="M 25.8125 -8.125 L 25.8125 -3.609375 C 25.8125 -2.816406 25.890625 -2.140625 26.046875 -1.578125 C 26.210938 -1.023438 26.519531 -0.5 26.96875 0 L 23.203125 0 C 22.535156 -0.875 22.203125 -2.078125 22.203125 -3.609375 L 22.203125 -8.125 C 22.203125 -9.84375 21.867188 -11.023438 21.203125 -11.671875 C 20.546875 -12.328125 19.296875 -12.65625 17.453125 -12.65625 L 6.859375 -12.65625 L 6.859375 0 L 3.328125 0 L 3.328125 -28.953125 L 17.125 -28.953125 C 20.25 -28.953125 22.617188 -28.21875 24.234375 -26.75 C 25.847656 -25.28125 26.65625 -23.382812 26.65625 -21.0625 C 26.65625 -19.6875 26.351562 -18.53125 25.75 -17.59375 C 25.15625 -16.65625 24.414062 -15.921875 23.53125 -15.390625 C 22.644531 -14.859375 21.769531 -14.488281 20.90625 -14.28125 L 20.90625 -14.203125 C 22.457031 -14.015625 23.660156 -13.421875 24.515625 -12.421875 C 25.378906 -11.429688 25.8125 -10 25.8125 -8.125 Z M 6.859375 -15.703125 L 17.125 -15.703125 C 19.164062 -15.703125 20.664062 -16.144531 21.625 -17.03125 C 22.59375 -17.914062 23.078125 -19.164062 23.078125 -20.78125 C 23.078125 -22.414062 22.597656 -23.671875 21.640625 -24.546875 C 20.691406 -25.421875 19.1875 -25.859375 17.125 -25.859375 L 6.859375 -25.859375 Z M 6.859375 -15.703125 "/></g></g></g><g clip-path="url(#df0932e405)"><path fill="#f7042d" d="M 120.695312 139.949219 C 107.363281 139.949219 96.296875 149.65625 94.175781 162.386719 L 90.878906 163.011719 C 87 156.460938 79.867188 152.070312 71.699219 152.070312 C 59.394531 152.070312 49.425781 162.039062 49.425781 174.339844 C 49.425781 184.804688 56.636719 193.574219 66.359375 195.96875 L 66.359375 198.457031 L 61.847656 198.457031 L 61.828125 198.253906 L 56.488281 196.269531 L 52.746094 196.269531 L 58.652344 208.570312 L 60.835938 207.984375 L 62.050781 206 L 66.359375 206 L 66.359375 233.816406 L 143.777344 233.816406 L 143.777344 187.570312 L 137.828125 187.570312 C 143.796875 182.636719 147.601562 175.183594 147.601562 166.835938 C 147.601562 151.980469 135.546875 139.949219 120.695312 139.949219 Z M 97.332031 180.148438 C 98.949219 182.984375 101.0625 185.503906 103.5625 187.574219 L 89.625 187.574219 C 91.082031 185.597656 92.214844 183.375 92.960938 180.976562 Z M 136.011719 224.472656 C 137.351562 224.472656 138.4375 225.558594 138.4375 226.898438 C 138.4375 228.242188 137.351562 229.328125 136.011719 229.328125 C 134.671875 229.328125 133.582031 228.242188 133.582031 226.898438 C 133.582031 225.558594 134.671875 224.472656 136.011719 224.472656 Z M 136.011719 224.472656 " fill-opacity="1" fill-rule="nonzero"/></g><path fill="#000000" d="M 120.308594 152.621094 C 112.800781 152.621094 106.714844 158.707031 106.714844 166.214844 C 106.714844 173.722656 112.800781 179.808594 120.308594 179.808594 C 127.816406 179.808594 133.902344 173.722656 133.902344 166.214844 C 133.902344 158.707031 127.816406 152.621094 120.308594 152.621094 Z M 119.011719 156.632812 C 120.226562 156.632812 121.21875 157.609375 121.21875 158.828125 C 121.21875 160.042969 120.226562 161.035156 119.011719 161.035156 C 117.792969 161.035156 116.804688 160.042969 116.804688 158.828125 C 116.804688 157.609375 117.792969 156.632812 119.011719 156.632812 Z M 125.820312 160.761719 C 127.035156 160.761719 128.027344 161.753906 128.027344 162.96875 C 128.027344 164.183594 127.035156 165.175781 125.820312 165.175781 C 124.601562 165.175781 123.613281 164.183594 123.613281 162.96875 C 123.613281 161.753906 124.601562 160.761719 125.820312 160.761719 Z M 113.804688 162.496094 C 115.023438 162.496094 116 163.488281 116 164.703125 C 116 165.921875 115.023438 166.910156 113.804688 166.910156 C 112.589844 166.910156 111.601562 165.921875 111.601562 164.703125 C 111.601562 163.488281 112.589844 162.496094 113.804688 162.496094 Z M 125.019531 168.515625 C 126.234375 168.515625 127.222656 169.492188 127.222656 170.710938 C 127.222656 171.925781 126.234375 172.917969 125.019531 172.917969 C 123.800781 172.917969 122.8125 171.925781 122.8125 170.710938 C 122.8125 169.492188 123.800781 168.515625 125.019531 168.515625 Z M 116.875 169.847656 C 118.089844 169.847656 119.082031 170.828125 119.082031 172.042969 C 119.082031 173.261719 118.089844 174.25 116.875 174.25 C 115.660156 174.25 114.667969 173.261719 114.667969 172.042969 C 114.667969 170.828125 115.660156 169.847656 116.875 169.847656 Z M 116.875 169.847656 " fill-opacity="1" fill-rule="nonzero"/><path fill="#000000" d="M 71.757812 162.328125 C 65.679688 162.328125 60.75 167.257812 60.75 173.335938 C 60.75 179.414062 65.679688 184.339844 71.757812 184.339844 C 77.835938 184.339844 82.761719 179.414062 82.761719 173.335938 C 82.761719 167.257812 77.835938 162.328125 71.757812 162.328125 Z M 70.707031 165.578125 C 71.691406 165.578125 72.492188 166.371094 72.492188 167.355469 C 72.492188 168.339844 71.691406 169.140625 70.707031 169.140625 C 69.722656 169.140625 68.917969 168.339844 68.917969 167.355469 C 68.917969 166.371094 69.722656 165.578125 70.707031 165.578125 Z M 76.21875 168.921875 C 77.203125 168.921875 78.003906 169.722656 78.003906 170.707031 C 78.003906 171.691406 77.203125 172.496094 76.21875 172.496094 C 75.234375 172.496094 74.433594 171.691406 74.433594 170.707031 C 74.433594 169.722656 75.234375 168.921875 76.21875 168.921875 Z M 66.492188 170.324219 C 67.476562 170.324219 68.269531 171.128906 68.269531 172.113281 C 68.269531 173.097656 67.476562 173.898438 66.492188 173.898438 C 65.507812 173.898438 64.707031 173.097656 64.707031 172.113281 C 64.707031 171.128906 65.507812 170.324219 66.492188 170.324219 Z M 75.566406 175.199219 C 76.554688 175.199219 77.355469 175.988281 77.355469 176.976562 C 77.355469 177.960938 76.554688 178.761719 75.566406 178.761719 C 74.582031 178.761719 73.78125 177.960938 73.78125 176.976562 C 73.78125 175.988281 74.582031 175.199219 75.566406 175.199219 Z M 68.976562 176.277344 C 69.960938 176.277344 70.761719 177.070312 70.761719 178.054688 C 70.761719 179.039062 69.960938 179.839844 68.976562 179.839844 C 67.992188 179.839844 67.191406 179.039062 67.191406 178.054688 C 67.191406 177.070312 67.992188 176.277344 68.976562 176.277344 Z M 68.976562 176.277344 " fill-opacity="1" fill-rule="nonzero"/><path fill="#f7042d" d="M 168.917969 184.722656 L 155.265625 192.996094 L 144.582031 192.996094 L 144.582031 213.609375 L 155.265625 213.609375 L 168.917969 221.882812 Z M 168.917969 184.722656 " fill-opacity="1" fill-rule="nonzero"/></svg>