<svg xmlns="http://www.w3.org/2000/svg" xmlns:xlink="http://www.w3.org/1999/xlink" width="500" zoomAndPan="magnify" viewBox="0 0 375 374.999991" height="500" preserveAspectRatio="xMidYMid meet" version="1.0"><defs><g/><clipPath id="860fbf4a6a"><path d="M 56.261719 149.703125 L 128 149.703125 L 128 222.453125 L 56.261719 222.453125 Z M 56.261719 149.703125 " clip-rule="nonzero"/></clipPath><clipPath id="b51ae89927"><path d="M 125 178 L 141.761719 178 L 141.761719 204 L 125 204 Z M 125 178 " clip-rule="nonzero"/></clipPath></defs><g clip-path="url(#860fbf4a6a)"><path fill="#ffffff" d="M 109.984375 149.75 C 101.285156 149.75 94.066406 156.082031 92.683594 164.386719 L 90.53125 164.792969 C 88.003906 160.523438 83.347656 157.65625 78.023438 157.65625 C 69.996094 157.65625 63.492188 164.160156 63.492188 172.183594 C 63.492188 179.007812 68.195312 184.730469 74.539062 186.289062 L 74.539062 187.914062 L 71.597656 187.914062 L 71.582031 187.78125 L 68.097656 186.488281 L 65.65625 186.488281 L 69.511719 194.511719 L 70.9375 194.128906 L 71.726562 192.835938 L 74.539062 192.835938 L 74.539062 210.980469 L 79.195312 210.980469 L 78.65625 215.019531 L 67.570312 217.128906 L 65.183594 215.890625 L 56.261719 217.589844 L 56.882812 222.59375 L 65.84375 220.890625 L 67.914062 218.804688 L 79.960938 216.207031 L 80.820312 210.980469 L 125.039062 210.980469 L 125.039062 180.8125 L 121.160156 180.8125 C 125.050781 177.597656 127.535156 172.734375 127.535156 167.289062 C 127.535156 157.597656 119.671875 149.75 109.984375 149.75 Z M 94.742188 175.972656 C 95.796875 177.820312 97.175781 179.464844 98.804688 180.816406 L 89.714844 180.816406 C 90.664062 179.527344 91.40625 178.078125 91.890625 176.511719 Z M 119.972656 204.882812 C 120.847656 204.882812 121.554688 205.59375 121.554688 206.46875 C 121.554688 207.34375 120.847656 208.050781 119.972656 208.050781 C 119.097656 208.050781 118.386719 207.34375 118.386719 206.46875 C 118.386719 205.59375 119.097656 204.882812 119.972656 204.882812 Z M 119.972656 204.882812 " fill-opacity="1" fill-rule="nonzero"/></g><path fill="#000000" d="M 109.730469 158.015625 C 104.832031 158.015625 100.863281 161.984375 100.863281 166.882812 C 100.863281 171.78125 104.832031 175.75 109.730469 175.75 C 114.628906 175.75 118.597656 171.78125 118.597656 166.882812 C 118.597656 161.984375 114.628906 158.015625 109.730469 158.015625 Z M 108.882812 160.632812 C 109.675781 160.632812 110.324219 161.269531 110.324219 162.0625 C 110.324219 162.859375 109.675781 163.503906 108.882812 163.503906 C 108.089844 163.503906 107.445312 162.859375 107.445312 162.0625 C 107.445312 161.269531 108.089844 160.632812 108.882812 160.632812 Z M 113.324219 163.328125 C 114.117188 163.328125 114.765625 163.972656 114.765625 164.765625 C 114.765625 165.558594 114.117188 166.207031 113.324219 166.207031 C 112.53125 166.207031 111.886719 165.558594 111.886719 164.765625 C 111.886719 163.972656 112.53125 163.328125 113.324219 163.328125 Z M 105.488281 164.457031 C 106.28125 164.457031 106.921875 165.105469 106.921875 165.898438 C 106.921875 166.691406 106.28125 167.335938 105.488281 167.335938 C 104.695312 167.335938 104.046875 166.691406 104.046875 165.898438 C 104.046875 165.105469 104.695312 164.457031 105.488281 164.457031 Z M 112.800781 168.382812 C 113.59375 168.382812 114.242188 169.023438 114.242188 169.816406 C 114.242188 170.609375 113.59375 171.253906 112.800781 171.253906 C 112.007812 171.253906 111.363281 170.609375 111.363281 169.816406 C 111.363281 169.023438 112.007812 168.382812 112.800781 168.382812 Z M 107.488281 169.253906 C 108.285156 169.253906 108.929688 169.890625 108.929688 170.683594 C 108.929688 171.480469 108.285156 172.125 107.488281 172.125 C 106.695312 172.125 106.050781 171.480469 106.050781 170.683594 C 106.050781 169.890625 106.695312 169.253906 107.488281 169.253906 Z M 107.488281 169.253906 " fill-opacity="1" fill-rule="nonzero"/><path fill="#000000" d="M 78.058594 164.347656 C 74.09375 164.347656 70.878906 167.5625 70.878906 171.527344 C 70.878906 175.492188 74.09375 178.707031 78.058594 178.707031 C 82.023438 178.707031 85.238281 175.492188 85.238281 171.527344 C 85.238281 167.5625 82.023438 164.347656 78.058594 164.347656 Z M 77.375 166.46875 C 78.015625 166.46875 78.539062 166.984375 78.539062 167.625 C 78.539062 168.269531 78.015625 168.792969 77.375 168.792969 C 76.730469 168.792969 76.207031 168.269531 76.207031 167.625 C 76.207031 166.984375 76.730469 166.46875 77.375 166.46875 Z M 80.96875 168.648438 C 81.613281 168.648438 82.132812 169.171875 82.132812 169.8125 C 82.132812 170.457031 81.613281 170.980469 80.96875 170.980469 C 80.328125 170.980469 79.804688 170.457031 79.804688 169.8125 C 79.804688 169.171875 80.328125 168.648438 80.96875 168.648438 Z M 74.625 169.566406 C 75.269531 169.566406 75.785156 170.085938 75.785156 170.730469 C 75.785156 171.371094 75.269531 171.894531 74.625 171.894531 C 73.984375 171.894531 73.460938 171.371094 73.460938 170.730469 C 73.460938 170.085938 73.984375 169.566406 74.625 169.566406 Z M 80.546875 172.742188 C 81.1875 172.742188 81.710938 173.257812 81.710938 173.902344 C 81.710938 174.542969 81.1875 175.066406 80.546875 175.066406 C 79.902344 175.066406 79.378906 174.542969 79.378906 173.902344 C 79.378906 173.257812 79.902344 172.742188 80.546875 172.742188 Z M 76.246094 173.445312 C 76.886719 173.445312 77.410156 173.964844 77.410156 174.605469 C 77.410156 175.25 76.886719 175.769531 76.246094 175.769531 C 75.601562 175.769531 75.082031 175.25 75.082031 174.605469 C 75.082031 173.964844 75.601562 173.445312 76.246094 173.445312 Z M 76.246094 173.445312 " fill-opacity="1" fill-rule="nonzero"/><g clip-path="url(#b51ae89927)"><path fill="#ffffff" d="M 141.4375 178.957031 L 132.53125 184.351562 L 125.5625 184.351562 L 125.5625 197.800781 L 132.53125 197.800781 L 141.4375 203.195312 Z M 141.4375 178.957031 " fill-opacity="1" fill-rule="nonzero"/></g><g fill="#000000" fill-opacity="1"><g transform="translate(82.066125, 201.303908)"><g><path d="M 10.0625 -5.3125 L 14.25 -15.40625 L 18.703125 -15.40625 L 18.703125 0 L 15.265625 0 L 15.265625 -10.21875 L 10.984375 0 L 9.125 0 L 4.859375 -10.28125 L 4.859375 0 L 1.421875 0 L 1.421875 -15.40625 L 5.90625 -15.40625 Z M 10.0625 -5.3125 "/></g></g></g><g fill="#000000" fill-opacity="1"><g transform="translate(102.180897, 201.303908)"><g><path d="M 12.890625 -15.40625 L 12.890625 -12.40625 L 4.9375 -12.40625 L 4.9375 -9.125 L 12.140625 -9.125 L 12.140625 -6.125 L 4.9375 -6.125 L 4.9375 0 L 1.421875 0 L 1.421875 -15.40625 Z M 12.890625 -15.40625 "/></g></g></g><g fill="#ffffff" fill-opacity="1"><g transform="translate(158.109926, 174.884885)"><g><path d="M 18.921875 -10 L 26.765625 -28.953125 L 35.140625 -28.953125 L 35.140625 0 L 28.671875 0 L 28.671875 -19.1875 L 20.625 0 L 17.125 0 L 9.125 -19.3125 L 9.125 0 L 2.65625 0 L 2.65625 -28.953125 L 11.109375 -28.953125 Z M 18.921875 -10 "/></g></g></g><g fill="#ffffff" fill-opacity="1"><g transform="translate(195.891116, 174.884885)"><g><path d="M 15.578125 0.515625 C 12.617188 0.515625 10.066406 -0.0546875 7.921875 -1.203125 C 5.785156 -2.359375 4.140625 -4.003906 2.984375 -6.140625 C 1.835938 -8.285156 1.265625 -10.828125 1.265625 -13.765625 L 1.265625 -15.1875 C 1.265625 -18.144531 1.835938 -20.6875 2.984375 -22.8125 C 4.140625 -24.945312 5.785156 -26.585938 7.921875 -27.734375 C 10.066406 -28.890625 12.617188 -29.46875 15.578125 -29.46875 C 18.546875 -29.46875 21.09375 -28.890625 23.21875 -27.734375 C 25.34375 -26.585938 26.976562 -24.945312 28.125 -22.8125 C 29.28125 -20.6875 29.859375 -18.144531 29.859375 -15.1875 L 29.859375 -13.765625 C 29.859375 -10.828125 29.28125 -8.285156 28.125 -6.140625 C 26.976562 -4.003906 25.34375 -2.359375 23.21875 -1.203125 C 21.09375 -0.0546875 18.546875 0.515625 15.578125 0.515625 Z M 15.578125 -5.234375 C 17.878906 -5.234375 19.71875 -5.96875 21.09375 -7.4375 C 22.46875 -8.90625 23.15625 -11.050781 23.15625 -13.875 L 23.15625 -15.0625 C 23.15625 -17.894531 22.472656 -20.046875 21.109375 -21.515625 C 19.753906 -22.984375 17.910156 -23.71875 15.578125 -23.71875 C 13.253906 -23.71875 11.40625 -22.984375 10.03125 -21.515625 C 8.65625 -20.046875 7.96875 -17.894531 7.96875 -15.0625 L 7.96875 -13.875 C 7.96875 -11.050781 8.65625 -8.90625 10.03125 -7.4375 C 11.40625 -5.96875 13.253906 -5.234375 15.578125 -5.234375 Z M 15.578125 -5.234375 "/></g></g></g><g fill="#ffffff" fill-opacity="1"><g transform="translate(227.012029, 174.884885)"><g><path d="M 14.03125 -8.609375 L 21.015625 -28.953125 L 27.921875 -28.953125 L 17.484375 0 L 10.546875 0 L 0 -28.953125 L 6.9375 -28.953125 Z M 14.03125 -8.609375 "/></g></g></g><g fill="#ffffff" fill-opacity="1"><g transform="translate(254.921741, 174.884885)"><g><path d="M 9.3125 -28.953125 L 9.3125 0 L 2.703125 0 L 2.703125 -28.953125 Z M 9.3125 -28.953125 "/></g></g></g><g fill="#ffffff" fill-opacity="1"><g transform="translate(266.93402, 174.884885)"><g><path d="M 25.1875 0 L 2.65625 0 L 2.65625 -28.953125 L 24.5 -28.953125 L 24.5 -23.3125 L 9.203125 -23.3125 L 9.203125 -17.453125 L 23.078125 -17.453125 L 23.078125 -11.859375 L 9.203125 -11.859375 L 9.203125 -5.671875 L 25.1875 -5.671875 Z M 25.1875 0 "/></g></g></g><g fill="#ffffff" fill-opacity="1"><g transform="translate(148.13727, 230.384882)"><g><path d="M 24.234375 -28.953125 L 24.234375 -23.3125 L 9.28125 -23.3125 L 9.28125 -17.125 L 22.796875 -17.125 L 22.796875 -11.5 L 9.28125 -11.5 L 9.28125 0 L 2.65625 0 L 2.65625 -28.953125 Z M 24.234375 -28.953125 "/></g></g></g><g fill="#ffffff" fill-opacity="1"><g transform="translate(173.390797, 230.384882)"><g><path d="M 9.3125 -28.953125 L 9.3125 0 L 2.703125 0 L 2.703125 -28.953125 Z M 9.3125 -28.953125 "/></g></g></g><g fill="#ffffff" fill-opacity="1"><g transform="translate(185.403076, 230.384882)"><g><path d="M 22.6875 -10.78125 L 22.6875 -28.953125 L 28.875 -28.953125 L 28.875 0 L 23.203125 0 L 8.84375 -19.546875 L 8.84375 0 L 2.65625 0 L 2.65625 -28.953125 L 9.671875 -28.953125 Z M 22.6875 -10.78125 "/></g></g></g><g fill="#ffffff" fill-opacity="1"><g transform="translate(216.920434, 230.384882)"><g><path d="M 2.65625 -28.953125 L 14.953125 -28.953125 C 17.941406 -28.953125 20.519531 -28.367188 22.6875 -27.203125 C 24.851562 -26.035156 26.53125 -24.425781 27.71875 -22.375 C 28.90625 -20.332031 29.5 -17.976562 29.5 -15.3125 L 29.5 -13.640625 C 29.5 -10.972656 28.90625 -8.613281 27.71875 -6.5625 C 26.53125 -4.507812 24.851562 -2.898438 22.6875 -1.734375 C 20.519531 -0.578125 17.941406 0 14.953125 0 L 2.65625 0 Z M 22.796875 -13.765625 L 22.796875 -15.1875 C 22.796875 -17.59375 22.035156 -19.519531 20.515625 -20.96875 C 18.992188 -22.425781 16.847656 -23.15625 14.078125 -23.15625 L 9.28125 -23.15625 L 9.28125 -5.796875 L 14.078125 -5.796875 C 16.847656 -5.796875 18.992188 -6.519531 20.515625 -7.96875 C 22.035156 -9.425781 22.796875 -11.359375 22.796875 -13.765625 Z M 22.796875 -13.765625 "/></g></g></g><g fill="#ffffff" fill-opacity="1"><g transform="translate(247.565616, 230.384882)"><g><path d="M 25.1875 0 L 2.65625 0 L 2.65625 -28.953125 L 24.5 -28.953125 L 24.5 -23.3125 L 9.203125 -23.3125 L 9.203125 -17.453125 L 23.078125 -17.453125 L 23.078125 -11.859375 L 9.203125 -11.859375 L 9.203125 -5.671875 L 25.1875 -5.671875 Z M 25.1875 0 "/></g></g></g><g fill="#ffffff" fill-opacity="1"><g transform="translate(273.810259, 230.384882)"><g><path d="M 26.5625 -7.453125 L 26.5625 -3.609375 C 26.5625 -2.816406 26.640625 -2.140625 26.796875 -1.578125 C 26.960938 -1.023438 27.269531 -0.5 27.71875 0 L 20.78125 0 C 20.113281 -0.875 19.78125 -2.078125 19.78125 -3.609375 L 19.78125 -7.53125 C 19.78125 -8.800781 19.539062 -9.6875 19.0625 -10.1875 C 18.59375 -10.6875 17.765625 -10.9375 16.578125 -10.9375 L 9.125 -10.9375 L 9.125 0 L 2.65625 0 L 2.65625 -28.953125 L 17.171875 -28.953125 C 20.578125 -28.953125 23.132812 -28.195312 24.84375 -26.6875 C 26.550781 -25.175781 27.40625 -23.273438 27.40625 -20.984375 C 27.40625 -19.441406 27.09375 -18.160156 26.46875 -17.140625 C 25.84375 -16.128906 25.070312 -15.351562 24.15625 -14.8125 C 23.25 -14.269531 22.347656 -13.894531 21.453125 -13.6875 L 21.453125 -13.609375 C 23.085938 -13.367188 24.347656 -12.75 25.234375 -11.75 C 26.117188 -10.757812 26.5625 -9.328125 26.5625 -7.453125 Z M 9.125 -16.375 L 16.859375 -16.375 C 19.523438 -16.375 20.859375 -17.523438 20.859375 -19.828125 C 20.859375 -22.148438 19.523438 -23.3125 16.859375 -23.3125 L 9.125 -23.3125 Z M 9.125 -16.375 "/></g></g></g></svg>